<svg xmlns="http://www.w3.org/2000/svg" viewBox="0 0 512 512">
  <path
     d="M 392.74871,112.88872 C 383.57436,97.598131 365.22566,93.010955 351.46413,102.18531 l -157.49305,90.21446 c -4.58717,-1.52906 -9.17435,-3.05812 -13.76152,-3.05812 -25.994,0 -45.87177,19.87776 -45.87177,45.87177 v 137.61527 c -9.17435,0 -15.29058,6.11625 -15.29058,15.29058 v 15.29059 h 122.32467 v -15.29059 c 0,-9.17433 -6.11622,-15.29058 -15.29058,-15.29058 V 244.38775 l 154.43495,-88.68539 c 15.2906,-9.17435 19.87776,-27.52306 12.23246,-42.81364 M 180.20956,258.14931 c -12.23247,0 -22.93589,-10.70344 -22.93589,-22.93589 0,-12.23247 10.70342,-22.9359 22.93589,-22.9359 12.23246,0 22.93587,10.70343 22.93587,22.9359 0,12.23245 -10.70341,22.93589 -22.93587,22.93589 m 67.27857,-44.34272 -35.16835,-15.29058 19.87777,-12.23249 35.16834,15.29061 -19.87776,12.23246 m 53.51705,-30.58117 -35.16834,-15.29059 19.87776,-12.23247 35.16837,15.29059 -19.87779,12.23247 m 51.98801,-30.58118 -35.16836,-15.29058 19.87778,-12.23247 35.16834,15.29059 -19.87776,12.23246 m 41.28457,189.60327 H 363.6966 v 30.58118 h 30.58116 v -30.58118 m 0,-122.32467 H 363.6966 v 91.74353 h 30.58116 z"
     fill="#ffffff" />
</svg>
